<svg xmlns="http://www.w3.org/2000/svg" width="20.593" height="13.825" viewBox="0 0 20.593 13.825">
  <g id="Group_21426" data-name="Group 21426" transform="translate(-102.673 -269.059)">
    <path id="Path_34172" data-name="Path 34172" d="M267.314,276.414a2.052,2.052,0,1,1,2.061-2.037A2.054,2.054,0,0,1,267.314,276.414Zm1.478-2.05a1.469,1.469,0,1,0-1.463,1.467A1.465,1.465,0,0,0,268.792,274.364Z" transform="translate(-154.354 -3)" fill="#204768" stroke="#204768" stroke-width="0.5"/>
    <path id="Path_34173" data-name="Path 34173" d="M133.139,316.473a2.034,2.034,0,0,1-2.078,2.052,2.052,2.052,0,0,1,.037-4.1A2.043,2.043,0,0,1,133.139,316.473Zm-.581,0A1.461,1.461,0,0,0,131.081,315a1.47,1.47,0,1,0,.022,2.939A1.461,1.461,0,0,0,132.558,316.472Z" transform="translate(-24.827 -40.038)" fill="#204768" stroke="#204768" stroke-width="0.5"/>
    <path id="Path_34174" data-name="Path 34174" d="M403.564,318.525a2.052,2.052,0,1,1,0-4.1,2.052,2.052,0,0,1,0,4.1Zm-.006-.583a1.469,1.469,0,1,0-1.465-1.475A1.453,1.453,0,0,0,403.558,317.942Z" transform="translate(-283.885 -40.038)" fill="#204768" stroke="#204768" stroke-width="0.5"/>
    <path id="Path_34175" data-name="Path 34175" d="M106.265,409a3.335,3.335,0,0,1,3.329,3.025,1.945,1.945,0,0,1,.017.272.287.287,0,0,1-.294.3.278.278,0,0,1-.285-.3,2.811,2.811,0,0,0-.632-1.708,2.77,2.77,0,0,0-3.959-.318,2.733,2.733,0,0,0-.938,1.99c-.008.2-.123.335-.285.332a.29.29,0,0,1-.3-.335,3.229,3.229,0,0,1,.782-2.063A3.266,3.266,0,0,1,106.265,409Z" transform="translate(0 -129.964)" fill="#204768" stroke="#204768" stroke-width="0.5"/>
    <path id="Path_34176" data-name="Path 34176" d="M381.814,412.043c.005.325-.059.431-.227.467a.267.267,0,0,1-.332-.2c-.027-.138-.032-.279-.048-.419a2.763,2.763,0,0,0-5.342-.543,2.98,2.98,0,0,0-.159.855c-.012.207-.12.324-.295.318a.3.3,0,0,1-.286-.333,3.321,3.321,0,0,1,.625-1.86,3.348,3.348,0,0,1,6.064,1.72Z" transform="translate(-258.799 -129.884)" fill="#204768" stroke="#204768" stroke-width="0.5"/>
    <path id="Path_34177" data-name="Path 34177" d="M242.473,366.886a3.263,3.263,0,0,1,2.516,1.13,3.17,3.17,0,0,1,.823,2.088c.005.242-.091.371-.275.376s-.3-.133-.306-.372a2.638,2.638,0,0,0-1.011-2.02,2.753,2.753,0,0,0-4.116.725,2.623,2.623,0,0,0-.385,1.278.782.782,0,0,1-.02.162.281.281,0,0,1-.311.226.275.275,0,0,1-.252-.289,2.89,2.89,0,0,1,.232-1.2,3.3,3.3,0,0,1,2.718-2.088A3.777,3.777,0,0,1,242.473,366.886Z" transform="translate(-129.505 -92.919)" fill="#204768" stroke="#204768" stroke-width="0.5"/>
  </g>
</svg>
