<svg xmlns="http://www.w3.org/2000/svg" width="20.094" height="20.094" viewBox="0 0 20.094 20.094">
  <g id="Group_21428" data-name="Group 21428" transform="translate(-147.426 -237.486)">
    <path id="Path_34191" data-name="Path 34191" d="M167.52,243.4a2.993,2.993,0,0,0-.6-.412,1.334,1.334,0,0,0-.586-.2c-.091,0-.089-.066-.089-.13q0-.712,0-1.424a2.486,2.486,0,0,0-2.42-2.46q-6.347-.01-12.694,0a2.472,2.472,0,0,0-2.4,2.15,2.755,2.755,0,0,0-.02.368c0,4.163.006,8.326,0,12.489a2.528,2.528,0,0,0,2.058,2.492,2.455,2.455,0,0,0,.438.035q6.275,0,12.55,0a2.517,2.517,0,0,0,2.465-2.077,2.809,2.809,0,0,0,.031-.49q0-2.4,0-4.805a.31.31,0,0,1,.1-.243c.363-.356.721-.718,1.082-1.077a.27.27,0,0,1,.093-.078v6.66c-.011.071-.021.141-.033.212a3.636,3.636,0,0,1-2.509,2.99,4.366,4.366,0,0,1-.838.179h-13.32a.708.708,0,0,0-.07-.015,3.691,3.691,0,0,1-3.309-3.645c-.026-4.244-.01-8.488-.009-12.732A3.7,3.7,0,0,1,151.1,237.5c4.254-.026,8.509-.009,12.763-.01a2.791,2.791,0,0,1,.489.04,3.629,3.629,0,0,1,3.037,2.666,4.929,4.929,0,0,1,.133.682Z" fill="#204768"/>
    <path id="Path_34192" data-name="Path 34192" d="M321.584,345.991c-.3,0-.608,0-.912,0-.089,0-.119-.028-.118-.117,0-.522,0-1.045,0-1.567a.185.185,0,0,1,.06-.144q1.619-1.589,3.237-3.18l2.215-2.174q.625-.613,1.252-1.224a.4.4,0,0,1,.182-.109,1.542,1.542,0,0,1,.68-.014.359.359,0,0,1,.181.111c.278.278.561.55.831.835a.735.735,0,0,1,.138.571.749.749,0,0,1-.248.518q-3.178,3.166-6.345,6.344a.454.454,0,0,1-.375.153C322.1,345.982,321.843,345.991,321.584,345.991Z" transform="translate(-161.832 -93.424)" fill="#204768"/>
    <path id="Path_34193" data-name="Path 34193" d="M211.375,296.4h-6.137c-.154,0-.154,0-.154-.151q0-.487,0-.973c0-.15,0-.155.155-.155h12.345a.073.073,0,0,1,.082.083q0,.558,0,1.117a.069.069,0,0,1-.083.078c-.034,0-.068,0-.1,0Z" transform="translate(-53.896 -53.873)" fill="#204768"/>
    <path id="Path_34194" data-name="Path 34194" d="M211.376,333.68h6.115c.176,0,.166,0,.179.171a.428.428,0,0,1-.156.375c-.22.2-.43.42-.638.636a.307.307,0,0,1-.242.1q-4.2,0-8.41,0h-2.991c-.147,0-.149,0-.149-.148q0-.487,0-.973c0-.16,0-.16.157-.16Z" transform="translate(-53.896 -89.917)" fill="#204768"/>
    <path id="Path_34195" data-name="Path 34195" d="M210.274,371.98h5.06c.046,0,.114-.024.133.02s-.047.082-.08.116c-.351.354-.7.705-1.055,1.06a.255.255,0,0,1-.2.085q-4.471,0-8.942,0c-.1,0-.137-.03-.136-.133,0-.331,0-.662,0-.993,0-.151,0-.155.155-.155Z" transform="translate(-53.872 -125.713)" fill="#204768"/>
    <path id="Path_34196" data-name="Path 34196" d="M209.057,410.639h3.8c.031,0,.062,0,.092,0,.048,0,.052.025.023.058-.013.016-.028.03-.043.044-.365.365-.73.728-1.093,1.095a.256.256,0,0,1-.2.084q-3.206,0-6.413,0c-.141,0-.144,0-.144-.143q0-.5,0-.994c0-.141,0-.143.143-.143Z" transform="translate(-53.895 -161.855)" fill="#204768"/>
    <path id="Path_34197" data-name="Path 34197" d="M208.228,450.267h-3c-.144,0-.144,0-.145-.14q0-.5,0-1c0-.125.01-.135.134-.135q3.017,0,6.033,0c.1,0,.135.033.133.136q-.009.507,0,1.014c0,.1-.028.134-.132.133C210.243,450.266,209.236,450.267,208.228,450.267Z" transform="translate(-53.895 -197.7)" fill="#204768"/>
  </g>
</svg>
