<svg id="Group_19594" data-name="Group 19594" xmlns="http://www.w3.org/2000/svg" width="47.561" height="47.561" viewBox="0 0 47.561 47.561">
  <path id="Path_33719" data-name="Path 33719" d="M0,0H47.561V47.561H0Z" fill="none"/>
  <path id="Path_33720" data-name="Path 33720" d="M23.817,27.261V31.4A11.89,11.89,0,0,0,7.963,42.615L4,42.613A15.854,15.854,0,0,1,23.817,27.259ZM19.854,24.78a11.89,11.89,0,1,1,11.89-11.89A11.887,11.887,0,0,1,19.854,24.78Zm0-3.963a7.927,7.927,0,1,0-7.927-7.927A7.925,7.925,0,0,0,19.854,20.817Zm11.89,11.89V26.762h3.963v5.945h5.945V36.67H35.707v5.945H31.744V36.67H25.8V32.707Z" transform="translate(3.927 0.982)" fill="#fefeff"/>
</svg>
