<svg xmlns="http://www.w3.org/2000/svg" width="19.852" height="17.137" viewBox="0 0 19.852 17.137">
  <g id="Group_21433" data-name="Group 21433" transform="translate(-70.451 -364.723)">
    <path id="Path_34216" data-name="Path 34216" d="M80.377,381.857q-3.885,0-7.771,0a2.2,2.2,0,0,1-1.634-.571,1.88,1.88,0,0,1-.141-2.449c1.259-2.1,2.531-4.2,3.8-6.3,1.339-2.217,2.67-4.439,4.021-6.648.955-1.563,2.508-1.562,3.46.007q3.908,6.439,7.789,12.895c.963,1.6.129,3.052-1.752,3.06C85.558,381.865,82.967,381.857,80.377,381.857Zm-.012-1.445q3.827,0,7.653,0c.288,0,.625.08.808-.235s-.068-.565-.216-.809Q84.8,373.04,80.977,366.72c-.44-.728-.751-.736-1.182-.024q-3.836,6.346-7.665,12.7c-.463.768-.321,1.018.581,1.02Q76.538,380.417,80.365,380.412Z" transform="translate(0 0)" fill="#204768"/>
    <path id="Path_34217" data-name="Path 34217" d="M148.025,410.646c-.062,1.419-.127,2.837-.185,4.256a.692.692,0,0,1-.77.716.616.616,0,0,1-.717-.617c-.073-1.537-.161-3.073-.2-4.611a.938.938,0,0,1,1.433-.876C148.072,409.761,148.037,410.211,148.025,410.646Z" transform="translate(-66.714 -39.358)" fill="#204768"/>
    <path id="Path_34218" data-name="Path 34218" d="M149.322,470.577a.677.677,0,0,1-.723.695.705.705,0,0,1-.765-.729.749.749,0,0,1,.725-.777A.776.776,0,0,1,149.322,470.577Z" transform="translate(-68.19 -92.57)" fill="#204768"/>
  </g>
</svg>
