<svg xmlns="http://www.w3.org/2000/svg" width="19.852" height="18.475" viewBox="0 0 19.852 18.475">
  <g id="Group_25522" data-name="Group 25522" transform="translate(23570.842 22019)">
    <path id="Path_34219" data-name="Path 34219" d="M49.743,356.422a7.4,7.4,0,0,0-4.475-6.961,7.6,7.6,0,0,0-9.93,3.437,7.336,7.336,0,0,0-.77,2.351c-.047.321.078.474.4.484.207.006.414,0,.621,0,.261.008.333.116.209.346-.209.387-.434.766-.653,1.147l-1.188,2.064c-.211.366-.334.368-.546,0q-.895-1.546-1.786-3.094c-.022-.037-.042-.075-.061-.114-.115-.238-.057-.342.2-.35.224-.007.449,0,.673,0,.36,0,.477-.1.522-.461a9.189,9.189,0,0,1,3.389-6.054,8.825,8.825,0,0,1,6.388-2,9.009,9.009,0,0,1,7.468,4.752,8.563,8.563,0,0,1,1.152,4.408,9.009,9.009,0,0,1-3.719,7.452,8.91,8.91,0,0,1-6.791,1.736,9.011,9.011,0,0,1-5.184-2.539.8.8,0,1,1,1.1-1.137,7.615,7.615,0,0,0,10.78-.106,7.554,7.554,0,0,0,2.183-4.556A6.768,6.768,0,0,0,49.743,356.422Z" transform="translate(-23602.355 -22366.184)" fill="#204768"/>
    <path id="Path_34220" data-name="Path 34220" d="M177.9,410.381c.764,0,.764,0,.764.775,0,.492,0,.492.488.609a4.248,4.248,0,0,1,1.128.445.892.892,0,1,1-.83,1.579,3.241,3.241,0,0,0-1.528-.326,1.342,1.342,0,0,0-.691.187.637.637,0,0,0-.109,1.034,1.775,1.775,0,0,0,.6.349c.662.272,1.33.53,1.988.813a2.463,2.463,0,0,1,1.652,1.931,2.669,2.669,0,0,1-1.681,2.925,3.229,3.229,0,0,1-.764.238c-.214.032-.267.137-.256.332.012.224,0,.448,0,.673a.325.325,0,0,1-.369.365c-.267,0-.535,0-.8,0a.3.3,0,0,1-.339-.337c0-.224-.016-.45,0-.673s-.08-.323-.3-.36a4.437,4.437,0,0,1-1.545-.57.915.915,0,0,1-.364-1.29.941.941,0,0,1,1.3-.365,3.992,3.992,0,0,0,1.512.5,2.121,2.121,0,0,0,1.015-.129.628.628,0,0,0,.46-.537.72.72,0,0,0-.37-.741c-.238-.138-.492-.248-.743-.363a21.136,21.136,0,0,1-2.053-.917,2.445,2.445,0,0,1-.591-3.887,2.782,2.782,0,0,1,1.388-.815.333.333,0,0,0,.293-.4c-.017-.206-.006-.414,0-.621.005-.331.088-.415.413-.421C177.673,410.379,177.785,410.381,177.9,410.381Z" transform="translate(-23738.182 -22425.381)" fill="#204768"/>
  </g>
</svg>
