<svg xmlns="http://www.w3.org/2000/svg" width="20.094" height="15.982" viewBox="0 0 20.094 15.982">
  <g id="Praveen-Minimal-Outline-Gallery" transform="translate(-17 -18)">
    <path id="Path_34185" data-name="Path 34185" d="M35.572,18H18.522A1.4,1.4,0,0,0,17,19.211V32.772a1.4,1.4,0,0,0,1.522,1.211H35.572a1.4,1.4,0,0,0,1.522-1.211V19.211A1.38,1.38,0,0,0,35.572,18ZM18.918,33.014l2.1-2.155a1.015,1.015,0,0,1,.7-.266.963.963,0,0,1,.7.266l2.1,2.155Zm16.958-.242a.278.278,0,0,1-.3.242h-9.5l-1.8-1.84,4.171-4.286a.941.941,0,0,1,.67-.266,1.124,1.124,0,0,1,.7.242l6.059,5.691Zm0-1.719-5.145-4.819a2.292,2.292,0,0,0-1.644-.581,2.223,2.223,0,0,0-1.614.654l-3.958,4.068-.122-.121a2.471,2.471,0,0,0-3.349,0l-1.827,1.889V19.211a.278.278,0,0,1,.3-.242H35.572a.281.281,0,0,1,.3.242Z" fill="#204768"/>
    <path id="Path_34186" data-name="Path 34186" d="M30.816,40a1.816,1.816,0,1,0,1.816,1.816A1.829,1.829,0,0,0,30.816,40Zm0,2.664a.848.848,0,1,1,.848-.848A.858.858,0,0,1,30.816,42.664Z" transform="translate(-8.127 -16.673)" fill="#204768"/>
  </g>
</svg>
