<svg id="Group_21333" data-name="Group 21333" xmlns="http://www.w3.org/2000/svg" width="23" height="23" viewBox="0 0 23 23">
  <path id="Path_34162" data-name="Path 34162" d="M0,0H23V23H0Z" fill="none"/>
  <path id="Path_34163" data-name="Path 34163" d="M17.711,9.579,21.9,20H19.848L18.7,17.158H14.81L13.669,20H11.618L15.806,9.579ZM9.617,2V3.895H15.33V5.789H13.456a17.242,17.242,0,0,1-3.447,5.969,14.15,14.15,0,0,0,2.224,1.617l-.715,1.779a16.2,16.2,0,0,1-2.854-2.047,15.9,15.9,0,0,1-5.9,3.361l-.51-1.827A14.015,14.015,0,0,0,7.323,11.76,17.119,17.119,0,0,1,4.635,7.684H6.767a15.187,15.187,0,0,0,1.9,2.726A15.3,15.3,0,0,0,11.436,5.79H2V3.895H7.713V2Zm7.141,10.312-1.187,2.951h2.373Z" fill="#204768"/>
</svg>
