<svg xmlns="http://www.w3.org/2000/svg" width="20.594" height="20.749" viewBox="0 0 20.594 20.749">
  <g id="_18024255611535797978" data-name="18024255611535797978" transform="translate(-4.15 -4.15)">
    <path id="Path_34187" data-name="Path 34187" d="M40.123,37.856,33.462,43.15a.322.322,0,0,0-.044.463.314.314,0,0,0,.265.132.308.308,0,0,0,.2-.066l6.661-5.294a.338.338,0,0,0-.419-.529Z" transform="translate(-22.555 -26.023)" fill="#204768" stroke="#204768" stroke-width="0.5"/>
    <path id="Path_34188" data-name="Path 34188" d="M36.088,36.886a1.074,1.074,0,0,0,.265-.022,1.662,1.662,0,0,0,1.39-1.919,1.7,1.7,0,0,0-.662-1.1,1.642,1.642,0,0,0-1.235-.309,1.7,1.7,0,0,0-1.1.662,1.642,1.642,0,0,0-.309,1.235A1.7,1.7,0,0,0,36.088,36.886Zm-.154-2.669c.044,0,.11-.022.154-.022a1.009,1.009,0,1,1-.993,1.169A1.016,1.016,0,0,1,35.934,34.217Z" transform="translate(-23.394 -22.693)" fill="#204768" stroke="#204768" stroke-width="0.5"/>
    <path id="Path_34189" data-name="Path 34189" d="M52.076,53.8a1.676,1.676,0,1,0,1.676,1.676A1.7,1.7,0,0,0,52.076,53.8Zm0,2.669a1.015,1.015,0,1,1,1.015-1.015A1.026,1.026,0,0,1,52.076,56.469Z" transform="translate(-35.854 -38.504)" fill="#204768" stroke="#204768" stroke-width="0.5"/>
    <path id="Path_34190" data-name="Path 34190" d="M24.472,14.524c0-.022.022-.066.022-.088,0-.948-.993-1.434-1.853-1.853-.618-.309-1.279-.64-1.456-1.037A2.82,2.82,0,0,1,21.494,9.8c.331-.9.662-1.831.044-2.448s-1.5-.4-2.382-.2a3.214,3.214,0,0,1-1.676.11,3.148,3.148,0,0,1-1.1-1.257c-.485-.75-1.015-1.61-1.941-1.61s-1.456.86-1.919,1.632a3.049,3.049,0,0,1-1.081,1.279,3.107,3.107,0,0,1-1.7-.132c-.882-.221-1.787-.441-2.382.154-.618.618-.309,1.544-.022,2.448a2.943,2.943,0,0,1,.243,1.765c-.176.419-.794.728-1.39,1.037-.838.441-1.787.926-1.787,1.853a.133.133,0,0,0,.022.088c0,.022-.022.066-.022.088,0,.926.948,1.434,1.787,1.853.6.309,1.213.618,1.39,1.037a3.143,3.143,0,0,1-.243,1.765c-.287.9-.6,1.831.022,2.448s1.522.375,2.382.154a3.107,3.107,0,0,1,1.7-.132,3.049,3.049,0,0,1,1.081,1.279c.463.772.993,1.632,1.919,1.632s1.478-.86,1.941-1.61a3.148,3.148,0,0,1,1.1-1.257,2.991,2.991,0,0,1,1.676.11c.86.2,1.765.419,2.382-.2s.287-1.544-.044-2.448a2.842,2.842,0,0,1-.309-1.743c.176-.419.816-.728,1.456-1.037.86-.441,1.853-.926,1.853-1.853C24.494,14.568,24.472,14.546,24.472,14.524Zm-2.14,1.345c-.728.375-1.5.75-1.765,1.39a3.245,3.245,0,0,0,.287,2.228c.265.728.529,1.434.2,1.743-.353.353-1.037.2-1.765.022a3.422,3.422,0,0,0-2.1-.066,3.41,3.41,0,0,0-1.39,1.5c-.419.662-.816,1.3-1.39,1.3-.551,0-.948-.64-1.368-1.323a3.411,3.411,0,0,0-1.39-1.544,3.353,3.353,0,0,0-2.117.11c-.728.176-1.412.353-1.765.022-.331-.331-.11-1.037.132-1.765a3.274,3.274,0,0,0,.221-2.206,3.254,3.254,0,0,0-1.7-1.368c-.728-.375-1.412-.728-1.412-1.279A.133.133,0,0,0,5,14.546c0-.022.022-.066.022-.088,0-.529.684-.882,1.412-1.279a3.254,3.254,0,0,0,1.7-1.368,3.388,3.388,0,0,0-.221-2.206c-.243-.75-.463-1.456-.132-1.765.353-.353,1.037-.176,1.765.022a3.514,3.514,0,0,0,2.117.11,3.411,3.411,0,0,0,1.39-1.544c.419-.684.794-1.323,1.368-1.323s.971.64,1.39,1.3a3.68,3.68,0,0,0,1.39,1.5,3.6,3.6,0,0,0,2.1-.066c.728-.176,1.412-.331,1.765.022.331.309.066,1.015-.2,1.743a3.125,3.125,0,0,0-.287,2.228c.265.64,1.037,1.015,1.765,1.39.772.375,1.478.75,1.478,1.279a.133.133,0,0,0,.022.088c0,.022-.022.066-.022.088C23.832,15.12,23.1,15.495,22.333,15.87Z" fill="#204768" stroke="#204768" stroke-width="0.5"/>
  </g>
</svg>
