<svg xmlns="http://www.w3.org/2000/svg" width="18.112" height="19.177" viewBox="0 0 18.112 19.177">
  <g id="Group_21735" data-name="Group 21735" transform="translate(-476.609 -184.793)">
    <path id="Path_34296" data-name="Path 34296" d="M491.69,185.051a1.516,1.516,0,0,1,.776,1.5c-.025,2.783-.009,5.567-.014,8.351,0,.182.092.441-.1.529a1.408,1.408,0,0,1-.845.019c-.108-.021-.121-.14-.129-.235-.011-.136-.011-.273-.011-.409q0-4.053,0-8.105c0-.572-.01-.583-.563-.583-4.107,0-8.214,0-12.321-.008-.413,0-.534.123-.533.536q.02,7.164.009,14.327c0,.539,0,.544.55.544h7.45a.868.868,0,0,1,.913.924c0,.1-.044.153-.139.158-.122.007-.245.008-.368.008H478.34a1.276,1.276,0,0,1-1.473-1.011q0-8.1-.008-16.195c0-.292.056-.358.354-.357Q484.452,185.061,491.69,185.051Z" transform="translate(0 0)" fill="#204768" stroke="#204768" stroke-width="0.5"/>
    <path id="Path_34297" data-name="Path 34297" d="M597.568,325.137l-.646,2.536c-.14.551-.19.594-.748.594-1.2,0-2.4,0-3.6.006-.142,0-.38-.1-.408.129a.447.447,0,0,0,.332.466,2.124,2.124,0,0,0,.687.088q1.495,0,2.989,0a1.775,1.775,0,0,1,.365.029.258.258,0,0,1,.2.23.286.286,0,0,1-.169.3.786.786,0,0,1-.4.061c-1.051,0-2.1.007-3.153,0-.964-.009-1.3-.264-1.55-1.184-.318-1.157-.62-2.319-.929-3.479-.161-.6-.227-.652-.842-.66a3.955,3.955,0,0,1-.57-.033.285.285,0,0,1-.247-.287.241.241,0,0,1,.207-.268,2.529,2.529,0,0,1,1.519.15.793.793,0,0,1,.4.5c.078.37.311.412.631.41,1.747-.01,3.494,0,5.241-.005.263,0,.526-.008.69.256Z" transform="translate(-102.847 -127.228)" fill="#204768"/>
    <path id="Path_34298" data-name="Path 34298" d="M663.122,400.639a1.942,1.942,0,0,1-.223-.177.69.69,0,0,1,0-.988.679.679,0,0,1,.955-.041.687.687,0,0,1,.077.984,2.269,2.269,0,0,1-.237.223Z" transform="translate(-170.613 -196.669)" fill="#204768"/>
    <path id="Path_34299" data-name="Path 34299" d="M627.071,400.689a1.835,1.835,0,0,1-.225-.174.7.7,0,0,1,.98-1.008.679.679,0,0,1,.023.984c-.062.071-.136.132-.2.2Z" transform="translate(-137.51 -196.719)" fill="#204768"/>
    <path id="Path_34300" data-name="Path 34300" d="M523.065,285.785q1.841,0,3.682,0c.477,0,.72.184.722.53s-.241.554-.714.555q-3.7.011-7.4,0c-.481,0-.747-.252-.7-.609s.311-.477.649-.476Q521.183,285.788,523.065,285.785Z" transform="translate(-38.365 -92.49)" fill="#204768" stroke="#204768" stroke-width="0.5"/>
    <path id="Path_34301" data-name="Path 34301" d="M523.064,235.739c1.24,0,2.48,0,3.72,0,.471,0,.717.2.7.545-.013.326-.25.5-.706.5q-3.72,0-7.44,0c-.454,0-.681-.181-.68-.521s.236-.523.682-.524C520.584,235.737,521.824,235.739,523.064,235.739Z" transform="translate(-38.379 -46.543)" fill="#204768" stroke="#204768" stroke-width="0.5"/>
    <path id="Path_34302" data-name="Path 34302" d="M520.842,335.815c.518,0,1.036-.009,1.554,0,.391.008.658.238.632.547a.556.556,0,0,1-.612.535c-1.063.012-2.127.014-3.189,0a.527.527,0,0,1-.56-.572.521.521,0,0,1,.58-.507C519.778,335.808,520.31,335.815,520.842,335.815Z" transform="translate(-38.382 -138.421)" fill="#204768" stroke="#204768" stroke-width="0.5"/>
  </g>
</svg>
