<svg id="Group_21334" data-name="Group 21334" xmlns="http://www.w3.org/2000/svg" width="23" height="23" viewBox="0 0 23 23">
  <path id="Path_34164" data-name="Path 34164" d="M0,0H23V23H0Z" fill="none"/>
  <path id="Path_34165" data-name="Path 34165" d="M6.75,4.8V1.95A.95.95,0,0,1,7.7,1h7.6a.95.95,0,0,1,.95.95V4.8h3.8a.95.95,0,0,1,.95.95v13.3a.95.95,0,0,1-.95.95H2.95A.95.95,0,0,1,2,19.05V5.75a.95.95,0,0,1,.95-.95ZM3.9,15.25V18.1H19.1V15.25Zm0-1.9H19.1V6.7H3.9ZM8.65,2.9V4.8h5.7V2.9Zm1.9,7.6h1.9v1.9h-1.9Z" transform="translate(0 0)" fill="#204768"/>
</svg>
