<svg xmlns="http://www.w3.org/2000/svg" width="20.092" height="20.246" viewBox="0 0 20.092 20.246">
  <g id="Group_21431" data-name="Group 21431" transform="translate(-48.766 -33.027)">
    <path id="Path_34205" data-name="Path 34205" d="M58.875,33.038c1.659,1.611,3.287,3.255,4.995,4.813a1.8,1.8,0,0,1,.656,1.592c-.038.7-.017,1.4-.005,2.107.006.342-.055.437-.422.281a1.279,1.279,0,0,1-.848-1.43c.055-1.172.147-1-.98-1-1.156-.009-2.313,0-3.469,0-.61,0-.818-.207-.821-.819-.006-1.3-.01-2.606,0-3.908,0-.333-.09-.466-.446-.464q-3.535.019-7.07,0c-.34,0-.463.105-.462.452q.011,8.124,0,16.248c0,.372.137.47.49.469,2.649-.011,5.3-.006,7.948-.005a1.978,1.978,0,0,1,1.149,1.051.112.112,0,0,1-.119.141c-.116.009-.234.011-.351.011-3,0-6-.009-9,.008a1.264,1.264,0,0,1-1.346-.828q0-9.166-.007-18.332c0-.3.039-.391.373-.39C52.385,33.045,55.63,33.038,58.875,33.038Zm3.446,5.151.057-.094-3.14-2.931c0,1.014,0,1.911,0,2.808,0,.191.164.217.32.217Z" fill="#204768"/>
    <path id="Path_34206" data-name="Path 34206" d="M172.083,155.048a13.391,13.391,0,0,1-1.693-1.006,7.358,7.358,0,0,1-2.533-4.535,18.892,18.892,0,0,1-.255-2.792c-.019-.347.105-.491.479-.487a6.423,6.423,0,0,0,3.91-1.217.464.464,0,0,1,.592-.047A8.342,8.342,0,0,0,177,146.351v1.757c-.051.376-.092.753-.154,1.127a7.086,7.086,0,0,1-3.285,5.251c-.337.2-.693.375-1.041.562Zm4.288-7.176q0-.373,0-.746c0-.187-.069-.308-.279-.312a7.036,7.036,0,0,1-3.533-1.188.413.413,0,0,0-.516.034,5.732,5.732,0,0,1-3.418,1.069c-.285,0-.387.1-.386.384a11.183,11.183,0,0,0,.584,3.8,5.575,5.575,0,0,0,3.137,3.365.67.67,0,0,0,.583.055,5.855,5.855,0,0,0,2.5-1.942A7.8,7.8,0,0,0,176.372,147.871Z" transform="translate(-108.395 -102.024)" fill="#204768" stroke="#204768" stroke-width="0.5"/>
    <path id="Path_34207" data-name="Path 34207" d="M88.306,138.218c-1.052,0-2.1,0-3.157,0-.33,0-.643-.034-.663-.453-.021-.443.307-.532.648-.533q3.222-.01,6.445,0c.327,0,.633.086.623.507s-.33.471-.652.473c-1.081.006-2.163,0-3.244,0Z" transform="translate(-32.582 -95.047)" fill="#204768"/>
    <path id="Path_34208" data-name="Path 34208" d="M87.417,200.98H85.1c-.338,0-.629-.07-.634-.486s.284-.5.621-.505q2.277-.005,4.554,0a.7.7,0,0,1,.565.841c-.066.178-.237.146-.376.147C89.023,200.982,88.22,200.98,87.417,200.98Z" transform="translate(-32.56 -152.292)" fill="#204768"/>
    <path id="Path_34209" data-name="Path 34209" d="M87.2,169.687c-.7,0-1.4.007-2.1,0-.321,0-.639-.058-.637-.486,0-.445.313-.5.665-.5,1.371,0,2.743.022,4.114-.01.487-.011.5.265.527.6.038.409-.241.4-.512.4-.686,0-1.371,0-2.057,0Z" transform="translate(-32.559 -123.745)" fill="#204768"/>
    <path id="Path_34210" data-name="Path 34210" d="M86.8,106.986c-.6,0-1.2,0-1.8,0-.313,0-.552-.109-.566-.467-.015-.383.233-.517.562-.519q1.841-.011,3.682,0c.317,0,.55.143.55.49s-.228.49-.547.493c-.628.007-1.256,0-1.885,0Z" transform="translate(-32.541 -66.557)" fill="#204768"/>
    <path id="Path_34211" data-name="Path 34211" d="M85.937,77.916c-.335,0-.671.014-1,0a.487.487,0,1,1,.013-.973c.67-.008,1.34-.009,2.01,0a.463.463,0,0,1,.5.49.453.453,0,0,1-.474.473c-.348.021-.7.005-1.048.005Z" transform="translate(-32.54 -40.048)" fill="#204768"/>
    <path id="Path_34212" data-name="Path 34212" d="M211.22,185.43c0-.276-.011-.553,0-.828a.43.43,0,0,0-.157-.386.886.886,0,0,1-.01-1.282.873.873,0,0,1,.975-.2.9.9,0,0,1,.2,1.563.156.156,0,0,0-.061.139c0,.382,0,.763,0,1.144a1.637,1.637,0,0,1-.01.189.462.462,0,0,1-.372.414.5.5,0,0,1-.514-.226.4.4,0,0,1-.05-.2c0-.11,0-.22,0-.33Z" transform="translate(-147.788 -136.493)" fill="#204768"/>
  </g>
</svg>
