<svg xmlns="http://www.w3.org/2000/svg" width="20.38" height="24.37" viewBox="0 0 20.38 24.37">
  <g id="Group_21430" data-name="Group 21430" transform="translate(-21.594 -44.609)">
    <path id="Path_34198" data-name="Path 34198" d="M27.51,44.741c1.546,0,3.093.011,4.639-.007a1.48,1.48,0,0,1,1.157.477Q35,46.95,36.732,48.654a1.491,1.491,0,0,1,.464,1.161c-.016,2.054.009,4.108-.017,6.161A.922.922,0,0,0,37.851,57a6.13,6.13,0,0,1-1.924,11.848A5.852,5.852,0,0,1,30.681,66.3a1.284,1.284,0,0,0-1.192-.61c-2.271.028-4.543,0-6.814.02-.678.007-.958-.239-.957-.93.012-6.355.005-12.71.011-19.065,0-.8.176-.968,1-.973C24.321,44.734,25.915,44.741,27.51,44.741ZM22.8,55.258c0,2.9.009,5.8-.008,8.7,0,.532.12.792.724.783,1.884-.03,3.769-.026,5.653,0,.527.007.619-.179.5-.642a5.61,5.61,0,0,1,0-2.794c.682-2.785,2.721-4.429,5.933-4.741.512-.05.636-.2.629-.689-.026-1.739-.034-3.479,0-5.218.013-.624-.224-.793-.8-.768-.844.037-1.691,0-2.536.009-.514,0-.75-.236-.744-.751.009-.821-.035-1.645.011-2.464.036-.652-.165-.891-.85-.881q-3.8.053-7.61,0c-.7-.01-.916.211-.908.908C22.815,49.556,22.8,52.407,22.8,55.258Zm17.931,7.487a5.083,5.083,0,0,0-5.05-5.165,5.179,5.179,0,0,0-5.17,5.081A5.112,5.112,0,0,0,35.592,67.8,5.038,5.038,0,0,0,40.728,62.745Z" transform="translate(0 0)" fill="#204768" stroke="#5a5a5a" stroke-width="0.25"/>
    <path id="Path_34199" data-name="Path 34199" d="M43.675,87.638q-2.314,0-4.628,0c-.346,0-.751,0-.773-.45-.025-.506.4-.521.774-.522q4.592,0,9.183,0c.349,0,.735.02.736.486s-.389.483-.736.483Q45.953,87.641,43.675,87.638Z" transform="translate(-14.153 -35.851)" fill="#204768" stroke="#5a5a5a" stroke-width="0.25"/>
    <path id="Path_34200" data-name="Path 34200" d="M43.614,104.584q-2.278,0-4.556,0c-.373,0-.8-.009-.784-.514.014-.451.416-.459.764-.459q4.556,0,9.111,0c.357,0,.807-.043.815.474s-.431.5-.8.5C46.651,104.586,45.133,104.584,43.614,104.584Z" transform="translate(-14.155 -50.338)" fill="#204768" stroke="#5a5a5a" stroke-width="0.25"/>
    <path id="Path_34201" data-name="Path 34201" d="M42.515,119.642c-1.156,0-2.312,0-3.469,0-.373,0-.8-.012-.773-.52.023-.445.424-.453.772-.453q3.432,0,6.865,0c.35,0,.734.022.735.486s-.388.483-.734.484C44.779,119.645,43.647,119.642,42.515,119.642Z" transform="translate(-14.153 -63.214)" fill="#204768" stroke="#5a5a5a" stroke-width="0.25"/>
    <path id="Path_34202" data-name="Path 34202" d="M40.89,133.717c.652,0,1.3-.006,1.956,0,.316,0,.591.114.606.482a.505.505,0,0,1-.564.533q-2.027.027-4.054,0c-.3,0-.6-.157-.575-.522.022-.4.332-.493.675-.495.652,0,1.3,0,1.956,0Z" transform="translate(-14.14 -76.077)" fill="#204768" stroke="#5a5a5a" stroke-width="0.25"/>
    <path id="Path_34203" data-name="Path 34203" d="M40.217,148.834c.432,0,.866-.018,1.3.007a.5.5,0,0,1,.026.991,15.918,15.918,0,0,1-2.806.009.483.483,0,0,1-.493-.519.505.505,0,0,1,.534-.484c.48-.021.961-.006,1.441-.006Z" transform="translate(-14.126 -88.998)" fill="#204768" stroke="#5a5a5a" stroke-width="0.25"/>
    <path id="Path_34204" data-name="Path 34204" d="M101.7,152.365a.942.942,0,0,1-.283.62c-.952,1.122-1.916,2.234-2.858,3.365a.751.751,0,0,1-1.23.114c-.591-.5-1.21-.959-1.807-1.448-.254-.208-.477-.469-.222-.8.281-.366.6-.2.881.023.4.311.81.612,1.185.951.347.314.6.289.9-.072.782-.95,1.583-1.884,2.386-2.816.264-.307.564-.586.955-.155A.644.644,0,0,1,101.7,152.365Z" transform="translate(-62.813 -91.648)" fill="#204768" stroke="#5a5a5a" stroke-width="0.25"/>
  </g>
</svg>
