<svg id="Group_19652" data-name="Group 19652" xmlns="http://www.w3.org/2000/svg" width="20.191" height="20.191" viewBox="0 0 20.191 20.191">
  <path id="Path_33226" data-name="Path 33226" d="M0,0H20.191V20.191H0Z" transform="translate(0)" fill="none"/>
  <path id="Path_33227" data-name="Path 33227" d="M10.634,14.619a8.985,8.985,0,0,1,7.241,3.3l-1.55.733A7.46,7.46,0,0,0,10.634,16.3a7.46,7.46,0,0,0-5.691,2.352L3.394,17.92A8.982,8.982,0,0,1,10.634,14.619ZM10.634,2A4.206,4.206,0,0,1,14.84,6.206V8.73a4.206,4.206,0,0,1-4.024,4.2l-.183,0A4.206,4.206,0,0,1,6.428,8.73V6.206A4.206,4.206,0,0,1,10.451,2Zm0,1.683a2.524,2.524,0,0,0-2.52,2.376l0,.148V8.73a2.524,2.524,0,0,0,5.043.148l0-.148V6.206a2.524,2.524,0,0,0-2.524-2.524Z" transform="translate(-0.395 -0.318)" fill="#204768"/>
</svg>
